<svg style="width: 72px;aspect-ratio: 1/1;" display="block" role="presentation" viewBox="0 0 24 24" xmlns="http://www.w3.org/2000/svg" id="3813546745">
    <path d="M 0 4.5 L 16.5 4.5 L 16.5 0.75 C 16.5 0.336 16.164 0 15.75 0 L 0.75 0 C 0.336 0 0 0.336 0 0.75 Z" fill-opacity="var(--1m6trwb, 0)" fill="#737373" height="4.5px" id="JiZmT3ndS" transform="translate(3.75 3.75)" width="16.5px"></path>
    <path d="M 0.75 16.5 C 0.336 16.5 0 16.164 0 15.75 L 0 0.75 C 0 0.336 0.336 0 0.75 0 L 15.75 0 C 16.164 0 16.5 0.336 16.5 0.75 L 16.5 15.75 C 16.5 16.164 16.164 16.5 15.75 16.5 Z" fill="transparent" height="16.5px" id="aNTzcRNMo" stroke-dasharray="" stroke-linecap="round" stroke-linejoin="round" stroke-width="2" stroke="#737373" transform="translate(3.75 3.75)" width="16.5px"></path>
    <path d="M 0 0 L 0 3" fill="transparent" height="3px" id="IgdNyxBYx" stroke-dasharray="" stroke-linecap="round" stroke-linejoin="round" stroke-width="2" stroke="#737373" transform="translate(16.5 2.25)" width="1px"></path>
    <path d="M 0 0 L 0 3" fill="transparent" height="3px" id="gCbtbIwHM" stroke-dasharray="" stroke-linecap="round" stroke-linejoin="round" stroke-width="2" stroke="#737373" transform="translate(7.5 2.25)" width="1px"></path>
    <path d="M 0 0 L 16.5 0" fill="transparent" height="1px" id="AtUUTbK3W" stroke-dasharray="" stroke-linecap="round" stroke-linejoin="round" stroke-width="2" stroke="#737373" transform="translate(3.75 8.25)" width="16.5px"></path>
    <path d="M 0 1.125 C 0 0.504 0.504 0 1.125 0 C 1.746 0 2.25 0.504 2.25 1.125 C 2.25 1.746 1.746 2.25 1.125 2.25 C 0.504 2.25 0 1.746 0 1.125 Z" fill="#737373" height="2.25px" id="jlKgepkKQ" transform="translate(10.875 11.25)" width="2.25px"></path>
    <path d="M 0 1.125 C 0 0.504 0.504 0 1.125 0 C 1.746 0 2.25 0.504 2.25 1.125 C 2.25 1.746 1.746 2.25 1.125 2.25 C 0.504 2.25 0 1.746 0 1.125 Z" fill="#737373" height="2.25px" id="exsXG7Mk2" transform="translate(15 11.25)" width="2.25px"></path>
    <path d="M 0 1.125 C 0 0.504 0.504 0 1.125 0 C 1.746 0 2.25 0.504 2.25 1.125 C 2.25 1.746 1.746 2.25 1.125 2.25 C 0.504 2.25 0 1.746 0 1.125 Z" fill="#737373" height="2.25px" id="CjmBOO2R_" transform="translate(6.75 15)" width="2.25px"></path>
    <path d="M 0 1.125 C 0 0.504 0.504 0 1.125 0 C 1.746 0 2.25 0.504 2.25 1.125 C 2.25 1.746 1.746 2.25 1.125 2.25 C 0.504 2.25 0 1.746 0 1.125 Z" fill="#737373" height="2.25px" id="kxeQIuyfA" transform="translate(10.875 15)" width="2.25px"></path>
    <path d="M 0 1.125 C 0 0.504 0.504 0 1.125 0 C 1.746 0 2.25 0.504 2.25 1.125 C 2.25 1.746 1.746 2.25 1.125 2.25 C 0.504 2.25 0 1.746 0 1.125 Z" fill="#737373" height="2.25px" id="emETPOb2C" transform="translate(15 15)" width="2.25px"></path>
</svg>