<svg style="width: 24px; aspect-ratio: 1/1;" display="block" role="presentation" viewBox="0 0 24 24" xmlns="http://www.w3.org/2000/svg" id="1426455308">
    <path d="M 0 9 C 0 4.029 4.029 0 9 0 C 13.971 0 18 4.029 18 9 C 18 13.971 13.971 18 9 18 C 4.029 18 0 13.971 0 9 Z" fill-opacity="var(--1m6trwb, 0)" fill="var(--21h8s6, rgb(0, 0, 0))" height="18px" id="toDPs7Y9O" transform="translate(3 3)" width="18px"></path>
    <path d="M 0 9 C 0 4.029 4.029 0 9 0 C 13.971 0 18 4.029 18 9 C 18 13.971 13.971 18 9 18 C 4.029 18 0 13.971 0 9 Z" fill-opacity="0.1" fill="#808080" height="18px" id="nB8qhy58t" stroke-dasharray="" stroke-linecap="round" stroke-linejoin="round" stroke-width="2" stroke="#808080" transform="translate(3 3)" width="18px"></path>
    <path d="M 3.75 0 L 2.25 0 C 1.007 0 0 1.007 0 2.25 L 0 12.75" fill="transparent" height="12.75px" id="QFOnXWoYe" stroke-dasharray="" stroke-linecap="round" stroke-linejoin="round" stroke-width="2" stroke="#808080" transform="translate(12 8.25)" width="3.75px"></path>
    <path d="M 0 0 L 6 0" fill="transparent" height="1px" id="rOK6Xhani" stroke-dasharray="" stroke-linecap="round" stroke-linejoin="round" stroke-width="2" stroke="#808080" transform="translate(9 13.5)" width="6px"></path>
</svg>