<svg style="width: 18px; height: 18px" display="block" role="presentation" viewBox="0 0 24 24" xmlns="http://www.w3.org/2000/svg" id="546070504">
    <path d="M 1.5 0 L 16.5 0 L 16.5 0 L 16.5 16.5 L 16.5 16.5 L 1.5 16.5 C 0.672 16.5 0 15.828 0 15 L 0 1.5 C 0 0.672 0.672 0 1.5 0 Z" fill-opacity="var(--1m6trwb, 0)" fill="var(--21h8s6, rgb(0, 0, 0))" height="16.5px" id="tvaBX4RVc" transform="translate(2.25 3.75)" width="16.5px"></path>
    <path d="M 0 0 L 10.5 0" fill="transparent" height="1px" id="LUaGvg8Xm" stroke-dasharray="" stroke-linecap="round" stroke-linejoin="round" stroke-width="var(--pgex8v, 1.5)" stroke="var(--21h8s6, rgb(0, 0, 0))" transform="translate(2.25 12)" width="10.5px"></path>
    <path d="M 0 0 L 3.75 3.75 L 0 7.5" fill="transparent" height="7.5px" id="wK8XjXbFV" stroke-dasharray="" stroke-linecap="round" stroke-linejoin="round" stroke-width="var(--pgex8v, 1.5)" stroke="var(--21h8s6, rgb(0, 0, 0))" transform="translate(9 8.25)" width="3.75px"></path>
    <path d="M 0 0 L 6 0 L 6 16.5 L 0 16.5" fill="transparent" height="16.5px" id="lu4uF5R1B" stroke-dasharray="" stroke-linecap="round" stroke-linejoin="round" stroke-width="var(--pgex8v, 1.5)" stroke="var(--21h8s6, rgb(0, 0, 0))" transform="translate(12.75 3.75)" width="6px"></path>
</svg>