<svg style="width: 16px; aspect-ratio: 1/1;" display="block" role="presentation" viewBox="0 0 24 24" xmlns="http://www.w3.org/2000/svg" id="1959944472">-->
    <path d="M 5.25 0 L 0 0 L 0 5.25 Z" fill-opacity="var(--1m6trwb, 0)" fill="var(--21h8s6, rgb(0, 0, 0))" height="5.25px" id="Xl0zpC_YL" transform="translate(15 15)" width="5.25px"></path>
    <path d="M 0 0 L 6 0" fill="transparent" height="1px" id="x6Co4zaQh" stroke-dasharray="" stroke-linecap="round" stroke-linejoin="round" stroke-width="1.75" stroke="var(--21h8s6, rgb(0, 0, 0))" transform="translate(9 9)" width="6px"></path>
    <path d="M 0 0 L 6 0" fill="transparent" height="1px" id="eELn6N1Ch" stroke-dasharray="" stroke-linecap="round" stroke-linejoin="round" stroke-width="1.75" stroke="var(--21h8s6, rgb(0, 0, 0))" transform="translate(9 12)" width="6px"></path>
    <path d="M 0 0 L 3 0" fill="transparent" height="1px" id="IgY3RVkTy" stroke-dasharray="" stroke-linecap="round" stroke-linejoin="round" stroke-width="1.75" stroke="var(--21h8s6, rgb(0, 0, 0))" transform="translate(9 15)" width="3px"></path>
    <path d="M 10.94 16.5 L 0.75 16.5 C 0.336 16.5 0 16.164 0 15.75 L 0 0.75 C 0 0.336 0.336 0 0.75 0 L 15.75 0 C 16.164 0 16.5 0.336 16.5 0.75 L 16.5 10.94 C 16.5 11.138 16.421 11.329 16.281 11.469 L 11.469 16.281 C 11.329 16.421 11.138 16.5 10.94 16.5 Z" fill="transparent" height="16.5px" id="PGFt2E8kh" stroke-dasharray="" stroke-linecap="round" stroke-linejoin="round" stroke-width="1.75" stroke="var(--21h8s6, rgb(0, 0, 0))" transform="translate(3.75 3.75)" width="16.5px"></path>
    <path d="M 5.183 0 L 0 0 L 0 5.183" fill="transparent" height="5.183437499999997px" id="VDCg9ignB" stroke-dasharray="" stroke-linecap="round" stroke-linejoin="round" stroke-width="1.75" stroke="var(--21h8s6, rgb(0, 0, 0))" transform="translate(15 14.999)" width="5.1825000000000045px"></path>
</svg>