<svg style="width: 16px; aspect-ratio: 1/1;" display="block" role="presentation" viewBox="0 0 24 24" xmlns="http://www.w3.org/2000/svg" id="1327812126">
    <path d="M 0 6 C 0 2.686 2.686 0 6 0 C 9.314 0 12 2.686 12 6 C 12 9.314 9.314 12 6 12 C 2.686 12 0 9.314 0 6 Z" fill-opacity="var(--1m6trwb, 0)" fill="var(--21h8s6, rgb(0, 0, 0))" height="12px" id="cPTa10O2f" transform="translate(6 3)" width="12px"></path>
    <path d="M 0 6 C 0 2.686 2.686 0 6 0 C 9.314 0 12 2.686 12 6 C 12 9.314 9.314 12 6 12 C 2.686 12 0 9.314 0 6 Z" fill-opacity="0.1" fill="000000" height="12px" id="K1KJBDfjt" stroke-dasharray="" stroke-linecap="round" stroke-linejoin="round" stroke-width="1.75" stroke="var(--21h8s6, rgb(0, 0, 0))" transform="translate(6 3)" width="12px"></path>
    <path d="M 0 5.25 C 1.816 2.112 5.114 0 9 0 C 12.886 0 16.184 2.112 18 5.25" fill="transparent" height="5.25px" id="nuzXpJw0A" stroke-dasharray="" stroke-linecap="round" stroke-linejoin="round" stroke-width="1.75" stroke="var(--21h8s6, rgb(0, 0, 0))" transform="translate(3 15)" width="18px"></path>
</svg>