<svg style="width: 24px; aspect-ratio: 1/1;" class="icon" display="block" role="presentation" viewBox="0 0 24 24" xmlns="http://www.w3.org/2000/svg">
    <path d="M 9.001 0 C 5.274 0 1.932 2.297 0.597 5.777 C -0.737 9.257 0.211 13.2 2.982 15.692 L 2.982 15.692 C 4.134 13.426 6.46 12 9.001 12 C 6.93 12 5.251 10.321 5.251 8.25 C 5.251 6.179 6.93 4.5 9.001 4.5 C 11.072 4.5 12.751 6.179 12.751 8.25 C 12.751 10.321 11.072 12 9.001 12 C 11.542 11.999 13.868 13.426 15.02 15.691 C 17.79 13.198 18.738 9.256 17.403 5.777 C 16.069 2.297 12.728 0 9.001 0 Z" fill-opacity="0.1" fill="var(--21h8s6, rgb(0, 0, 0))" height="15.69187501654227px" id="ZqEqlBeTd" transform="translate(2.999 3)" width="18.00079583996478px"></path>
    <path d="M 0 3.694 C 1.151 1.428 3.477 0 6.019 0 C 8.561 0 10.887 1.428 12.037 3.694" fill="transparent" height="3.6943252075032547px" id="gGSVCm5lV" stroke-dasharray="" stroke-linecap="round" stroke-linejoin="round" stroke-width="var(--pgex8v, 1.5)" stroke="var(--21h8s6, rgb(0, 0, 0))" transform="translate(5.981 14.997)" width="12.037499999999994px"></path>
    <path d="M 0 9 C 0 4.029 4.029 0 9 0 C 13.971 0 18 4.029 18 9 C 18 13.971 13.971 18 9 18 C 4.029 18 0 13.971 0 9 Z" fill="transparent" height="18px" id="ZwB0TRUBZ" stroke-dasharray="" stroke-linecap="round" stroke-linejoin="round" stroke-width="var(--pgex8v, 1.5)" stroke="var(--21h8s6, rgb(0, 0, 0))" transform="translate(3 3)" width="18px"></path>
    <path d="M 0 3.75 C 0 1.679 1.679 0 3.75 0 C 5.821 0 7.5 1.679 7.5 3.75 C 7.5 5.821 5.821 7.5 3.75 7.5 C 1.679 7.5 0 5.821 0 3.75 Z" fill="transparent" height="7.5px" id="QLPFV7G5_" stroke-dasharray="" stroke-linecap="round" stroke-linejoin="round" stroke-width="var(--pgex8v, 1.5)" stroke="var(--21h8s6, rgb(0, 0, 0))" transform="translate(8.25 7.5)" width="7.5px"></path>
</svg>