<svg style="width: 24px; aspect-ratio: 1/1;" display="block" role="presentation" viewBox="0 0 24 24" xmlns="http://www.w3.org/2000/svg" id="3761207643">
    <path d="M 18.993 2.206 C 18.876 1.737 18.54 1.353 18.09 1.175 C 14.951 -0.033 9.75 0 9.75 0 C 9.75 0 4.549 -0.033 1.406 1.179 C 0.957 1.358 0.621 1.742 0.503 2.211 C 0.288 3.051 0 4.696 0 7.5 C 0 10.304 0.288 11.949 0.507 12.794 C 0.625 13.261 0.959 13.643 1.406 13.821 C 4.549 15.033 9.75 15 9.75 15 C 9.75 15 14.951 15.033 18.094 13.821 C 18.542 13.644 18.878 13.262 18.997 12.794 C 19.216 11.95 19.504 10.304 19.504 7.5 C 19.504 4.696 19.212 3.051 18.993 2.206 Z M 8.25 10.5 L 8.25 4.5 L 12.75 7.5 Z" fill-opacity="var(--1m6trwb, 0)" fill="var(--21h8s6, rgb(0, 0, 0))" height="15.000173729153522px" id="Kxf_tc1rc" transform="translate(2.25 4.5)" width="19.503749999999997px"></path>
    <path d="M 4.5 3 L 0 0 L 0 6 Z" fill="#FFFFFF" height="6px" id="OiQVq1BcP" stroke-dasharray="" stroke-linecap="round" stroke-linejoin="round" stroke-width="2" stroke="#808080" transform="translate(10.5 9)" width="4.5px"></path>
    <path d="M 0 7.5 C 0 10.304 0.288 11.949 0.507 12.794 C 0.625 13.261 0.959 13.643 1.406 13.821 C 4.549 15.033 9.75 15 9.75 15 C 9.75 15 14.951 15.033 18.094 13.821 C 18.542 13.644 18.878 13.262 18.997 12.794 C 19.216 11.95 19.504 10.304 19.504 7.5 C 19.504 4.696 19.216 3.052 18.997 2.206 C 18.879 1.737 18.543 1.353 18.094 1.175 C 14.951 -0.033 9.75 0 9.75 0 C 9.75 0 4.549 -0.033 1.406 1.179 C 0.957 1.358 0.621 1.742 0.503 2.211 C 0.288 3.051 0 4.696 0 7.5 Z" fill-opacity="0.1" fill="#808080" height="15.000173729153499px" id="f0uv60ll0" stroke-dasharray="" stroke-linecap="round" stroke-linejoin="round" stroke-width="2" stroke="#808080" transform="translate(2.25 4.5)" width="19.503749999999997px"></path>
</svg>