<svg style="filter: invert(1)" role="presentation" viewBox="0 0 24 24" xmlns="http://www.w3.org/2000/svg">
    <path d="M 6.75 12.75 L 5.25 1.5 L 0 0 L 2.864 12.172 C 2.944 12.511 3.246 12.75 3.594 12.75 Z" fill-opacity="0.4" fill="000000" height="12.75000002660343px" transform="translate(3 7.5)" width="6.75px"></path>
    <path d="M 0 12.75 L 3.156 12.75 C 3.504 12.75 3.806 12.511 3.886 12.172 L 6.75 0 L 1.5 1.5 Z" fill-opacity="0.4" fill="000000" height="12.75000002660343px" transform="translate(14.25 7.5)" width="6.75px"></path>
    <path d="M 0 0 L 2.864 12.172 C 2.944 12.511 3.246 12.75 3.594 12.75 L 14.406 12.75 C 14.754 12.75 15.056 12.511 15.136 12.172 L 18 0 L 12.75 1.5 L 9.281 0.112 C 9.103 0.04 8.903 0.04 8.724 0.112 L 5.25 1.5 Z" fill-opacity="0.1" fill="000000" height="12.75000002660343px" stroke-dasharray="" stroke-linecap="round" stroke-linejoin="round" stroke-width="1.5" stroke="rgb(0,0,0)" transform="translate(3 7.5)" width="18px"></path>
    <path d="M 0 0 L 1.5 11.25" fill="transparent" height="11.25px" stroke-linecap="round" stroke-linejoin="round" stroke-width="1.5" stroke="rgb(0, 0, 0)" transform="translate(8.25 9)" width="1.5px"></path>
    <path d="M 1.5 0 L 0 11.25" fill="transparent" height="11.25px" stroke-dasharray="" stroke-linecap="round" stroke-linejoin="round" stroke-width="1.5" stroke="rgb(0,0,0)" transform="translate(14.25 9)" width="1.5px"></path>
    <path d="M 16.5 5.465 C 16.445 4.31 15.804 3.264 14.8 2.692 C 13.796 2.119 12.569 2.1 11.548 2.642 C 11.205 1.098 9.835 0 8.254 0 C 6.672 0 5.303 1.098 4.959 2.642 C 3.938 2.097 2.708 2.114 1.702 2.686 C 0.696 3.259 0.054 4.307 0 5.464" fill-opacity="0.2" fill="000000" height="5.464519680333115px" stroke-dasharray="" stroke-linecap="round" stroke-linejoin="round" stroke-width="1.5" stroke="rgb(0,0,0)" transform="translate(3.75 2.251)" width="16.5px"></path>
</svg>